<svg xmlns="http://www.w3.org/2000/svg" width="18.253" height="19.141" viewBox="0 0 18.253 19.141">
  <defs>
    <style>
      .cls-1, .cls-3 {
        fill: #fff;
      }

      .cls-1 {
        fill-rule: evenodd;
      }

      .cls-2, .cls-3 {
        stroke: none;
      }
    </style>
  </defs>
  <g id="Search" transform="translate(0.988 0.926)">
    <g id="Group_33" data-name="Group 33" transform="translate(-0.237 -0.176)">
      <g id="Group_32" data-name="Group 32" transform="translate(0)">
        <g id="Search-2" data-name="Search" class="cls-1" transform="translate(-78.939 -1130.78)">
          <path class="cls-2" d="M 95.04658508300781 1148.795532226563 C 94.77501678466797 1148.795532226563 94.51937866210938 1148.690063476563 94.32674407958984 1148.498657226563 L 90.49628448486328 1144.654541015625 C 89.24427032470703 1145.462036132813 87.80386352539063 1145.887329101563 86.31058502197266 1145.887329101563 C 83.88927459716797 1145.887329101563 81.65340423583984 1144.7890625 80.17625427246094 1142.8740234375 C 78.95249938964844 1141.28759765625 78.39564514160156 1139.316650390625 78.60829925537109 1137.324340820313 C 78.82094573974609 1135.33203125 79.78125 1133.523071289063 81.31229400634766 1132.230590820313 C 82.70713806152344 1131.05322265625 84.47952270507813 1130.404907226563 86.30300903320313 1130.404907226563 C 88.45944976806641 1130.404907226563 90.53419494628906 1131.313354492188 91.99525451660156 1132.897338867188 C 93.35377502441406 1134.369995117188 94.08177947998047 1136.284301757813 94.04512786865234 1138.287475585938 C 94.01076507568359 1140.166015625 93.30740356445313 1141.941650390625 92.05602264404297 1143.328125 L 95.73825073242188 1147.021728515625 L 95.76648712158203 1147.049682617188 C 96.16567993164063 1147.446533203125 96.16780853271484 1148.094482421875 95.77122497558594 1148.493896484375 C 95.57795715332031 1148.6884765625 95.32064819335938 1148.795532226563 95.04658508300781 1148.795532226563 Z M 86.34688568115234 1132.564697265625 C 83.24761962890625 1132.564697265625 80.71810913085938 1135.086181640625 80.70817565917969 1138.185546875 C 80.70550537109375 1139.693969726563 81.29069519042969 1141.113525390625 82.35594940185547 1142.182250976563 C 83.42119598388672 1143.2509765625 84.83882904052734 1143.840698242188 86.34769439697266 1143.8427734375 C 89.45320892333984 1143.8427734375 91.98284912109375 1141.315673828125 91.98616027832031 1138.209594726563 C 91.98946380615234 1135.103637695313 89.46522521972656 1132.5712890625 86.35919952392578 1132.564697265625 L 86.34688568115234 1132.564697265625 Z"/>
          <path class="cls-3" d="M 95.04658508300781 1148.420532226563 C 95.21270751953125 1148.420532226563 95.37877655029297 1148.35693359375 95.50509643554688 1148.229736328125 C 95.75665283203125 1147.976318359375 95.75531005859375 1147.5673828125 95.50210571289063 1147.315673828125 L 95.50208282470703 1147.31591796875 L 91.5333251953125 1143.3349609375 C 94.31037902832031 1140.537109375 94.39248657226563 1136.049072265625 91.71961975097656 1133.151611328125 C 90.27128601074219 1131.581420898438 88.29161071777344 1130.779907226563 86.30300140380859 1130.779907226563 C 84.62171173095703 1130.779907226563 82.93421936035156 1131.352294921875 81.55419921875 1132.51708984375 C 78.54188537597656 1135.06005859375 78.06546020507813 1139.523681640625 80.47319030761719 1142.64501953125 C 81.92026519775391 1144.52099609375 84.10093688964844 1145.512329101563 86.31058502197266 1145.512329101563 C 87.77747344970703 1145.512329101563 89.25706481933594 1145.075439453125 90.54348754882813 1144.170654296875 L 94.59111022949219 1148.232666015625 C 94.71717071533203 1148.35791015625 94.88190460205078 1148.420532226563 95.04658508300781 1148.420532226563 M 86.34689331054688 1132.189697265625 C 86.35134124755859 1132.189697265625 86.35553741455078 1132.189697265625 86.35999298095703 1132.189697265625 C 89.67891693115234 1132.19677734375 92.36470031738281 1134.89111328125 92.36116027832031 1138.2099609375 C 92.35762023925781 1141.529052734375 89.66611480712891 1144.2177734375 86.34717559814453 1144.2177734375 C 83.02019500732422 1144.213134765625 80.32729339599609 1141.511474609375 80.33317565917969 1138.184326171875 C 80.34379577636719 1134.869995117188 83.03409576416016 1132.189697265625 86.34689331054688 1132.189697265625 M 95.04658508300781 1149.170532226563 C 94.67527770996094 1149.170532226563 94.32574462890625 1149.0263671875 94.06238555908203 1148.7646484375 L 90.44063568115234 1145.130004882813 C 89.18988037109375 1145.87255859375 87.77455139160156 1146.262329101563 86.31058502197266 1146.262329101563 C 83.77212524414063 1146.262329101563 81.42802429199219 1145.11083984375 79.87933349609375 1143.103149414063 C 78.59628295898438 1141.439819335938 78.01245880126953 1139.373413085938 78.23542022705078 1137.284545898438 C 78.45836639404297 1135.19580078125 79.46517944335938 1133.299072265625 81.07039642333984 1131.943969726563 C 82.53281402587891 1130.709716796875 84.39110565185547 1130.029907226563 86.30300903320313 1130.029907226563 C 88.56383514404297 1130.029907226563 90.73905944824219 1130.982421875 92.27090454101563 1132.64306640625 C 93.69522857666016 1134.187133789063 94.45848846435547 1136.194091796875 94.42006683349609 1138.294311523438 C 94.38623046875 1140.144165039063 93.73349761962891 1141.89892578125 92.56729888916016 1143.309814453125 L 96.00337219238281 1146.756469726563 L 96.03086853027344 1146.783813476563 C 96.57659912109375 1147.326293945313 96.57951354980469 1148.212036132813 96.03736877441406 1148.758056640625 C 95.77307891845703 1149.024169921875 95.42128753662109 1149.170532226563 95.04658508300781 1149.170532226563 Z M 86.34688568115234 1132.939697265625 C 83.4537353515625 1132.939697265625 81.09244537353516 1135.29345703125 81.08317565917969 1138.186767578125 C 81.0806884765625 1139.594482421875 81.62701416015625 1140.919799804688 82.62153625488281 1141.91748046875 C 83.61605834960938 1142.915283203125 84.93954467773438 1143.4658203125 86.34822845458984 1143.4677734375 C 89.24665832519531 1143.4677734375 91.60806274414063 1141.108764648438 91.61116027832031 1138.209106445313 C 91.61425018310547 1135.309692382813 89.25786590576172 1132.945922851563 86.3583984375 1132.939697265625 L 86.34688568115234 1132.939697265625 Z"/>
        </g>
      </g>
    </g>
  </g>
</svg>
