<svg xmlns="http://www.w3.org/2000/svg" width="15.75" height="15" viewBox="0 0 15.75 15">
  <defs>
    <style>
      .cls-1 {
        fill: #2d3142;
        fill-rule: evenodd;
      }
    </style>
  </defs>
  <g id="star_favorite-_1498_" data-name="star_favorite-[#1498]" transform="translate(43 0)">
    <g id="Page-1" transform="translate(-43 0)">
      <g id="Dribbble-Dark-Preview" transform="translate(0)">
        <g id="icons" transform="translate(0 0)">
          <path id="star_favorite-_1498_2" data-name="star_favorite-[#1498]" class="cls-1" d="M94.839,167.8a3.284,3.284,0,0,0-.957,2.923l.345,1.992-1.8-.94a3.35,3.35,0,0,0-3.1,0l-1.8.94.345-1.992a3.286,3.286,0,0,0-.957-2.923l-1.459-1.411,2.016-.291a3.324,3.324,0,0,0,2.506-1.806l.9-1.813.9,1.813a3.322,3.322,0,0,0,2.5,1.806l2.017.291L94.839,167.8Zm3.478-.728a1.412,1.412,0,0,0-.79-2.413l-2.972-.428a1.423,1.423,0,0,1-1.073-.774l-1.33-2.671a1.431,1.431,0,0,0-2.557,0l-1.328,2.671a1.425,1.425,0,0,1-1.073.774l-2.972.428a1.412,1.412,0,0,0-.79,2.413l2.15,2.08a1.4,1.4,0,0,1,.41,1.252l-.508,2.937a1.422,1.422,0,0,0,2.068,1.491l2.658-1.387a1.439,1.439,0,0,1,1.327,0l2.658,1.387a1.422,1.422,0,0,0,2.068-1.491l-.508-2.937a1.405,1.405,0,0,1,.409-1.252l2.151-2.08Z" transform="translate(-83 -160)"/>
        </g>
      </g>
    </g>
  </g>
</svg>
